<?xml version="1.0" encoding="UTF-8" standalone="no"?>
<svg
   fill="none"
   height="16"
   viewBox="0 0 16 16"
   width="16"
   version="1.1"
   id="svg2"
   sodipodi:docname="open-folder.svg"
   inkscape:version="1.4.1 (1:1.4.1+202503302257+93de688d07)"
   xmlns:inkscape="http://www.inkscape.org/namespaces/inkscape"
   xmlns:sodipodi="http://sodipodi.sourceforge.net/DTD/sodipodi-0.dtd"
   xmlns="http://www.w3.org/2000/svg"
   xmlns:svg="http://www.w3.org/2000/svg">
  <defs
     id="defs2" />
  <sodipodi:namedview
     id="namedview2"
     pagecolor="#ffffff"
     bordercolor="#000000"
     borderopacity="0.25"
     inkscape:showpageshadow="2"
     inkscape:pageopacity="0.0"
     inkscape:pagecheckerboard="0"
     inkscape:deskcolor="#d1d1d1"
     inkscape:zoom="45.75"
     inkscape:cx="8"
     inkscape:cy="8"
     inkscape:window-width="1920"
     inkscape:window-height="935"
     inkscape:window-x="0"
     inkscape:window-y="32"
     inkscape:window-maximized="1"
     inkscape:current-layer="svg2" />
  <g
     fill="#212121"
     id="g2"
     style="fill:#ffffff;fill-opacity:1">
    <path
       d="m2 5c0-1.65685 1.34315-3 3-3h6c1.6569 0 3 1.34315 3 3v2.5c0 .27614-.2239.5-.5.5s-.5-.22386-.5-.5v-2.5c0-1.10457-.8954-2-2-2h-6c-1.10457 0-2 .89543-2 2v6c0 1.1046.89543 2 2 2h3.5c.27614 0 .5.2239.5.5s-.22386.5-.5.5h-3.5c-1.65685 0-3-1.3431-3-3z"
       id="path1"
       style="fill:#ffffff;fill-opacity:1" />
    <path
       d="m6.50684 6c-.13023-.00177-.26102.04703-.36039.1464-.05309.05309-.09174.11514-.11596.18129-.01973.05371-.03049.11175-.03049.17231v4c0 .2761.22386.5.5.5s.5-.2239.5-.5v-2.79294l5.1464 5.14644c.1953.1953.5119.1953.7072 0 .1952-.1953.1952-.5118 0-.7071l-5.14645-5.1464h2.79285c.2761 0 .5-.22386.5-.5s-.2239-.5-.5-.5z"
       id="path2"
       style="fill:#ffffff;fill-opacity:1" />
  </g>
</svg>
